# xmcd CD database file
#
# Track frame offsets:
#	150
#	20477
#	40512
#
# Disc length: 747 seconds
#
# Revision: 0
# Processed by: cddbd v1.5.1PL0 Copyright (c) Steve Scherf et al.
# Submitted via: CDex 1.51
#
DISCID=1702e903
DTITLE=青柳 涼子 - Reborn
DYEAR=2001
DGENRE=JPop
TTITLE0=Reborn
TTITLE1=Reborn -Cool ver.-
TTITLE2=Reborn -Child ver.-
EXTD=YEAR: 2001
EXTT0=
EXTT1=
EXTT2=
PLAYORDER=
